<svg width="24" height="27" viewBox="0 0 24 27" fill="none" xmlns="http://www.w3.org/2000/svg">
<g clip-path="url(#clip0_1255_1001)">
<path d="M23.709 2.21627C23.5741 2.07657 23.4036 1.97985 23.2176 1.93748C23.0315 1.8951 22.8378 1.90884 22.659 1.97707L0.659024 10.2971C0.469292 10.3719 0.305944 10.505 0.190675 10.6787C0.0754064 10.8524 0.0136719 11.0584 0.0136719 11.2695C0.0136719 11.4805 0.0754064 11.6866 0.190675 11.8602C0.305944 12.0339 0.469292 12.167 0.659024 12.2419L10.259 16.2355L14.099 26.2195C14.1712 26.4081 14.2948 26.5707 14.4548 26.6871C14.6147 26.8035 14.8039 26.8687 14.999 26.8747C15.2011 26.8704 15.3972 26.8025 15.5614 26.6799C15.7257 26.5574 15.8503 26.386 15.919 26.1883L23.919 3.30828C23.9872 3.12427 24.0036 2.92392 23.9664 2.73058C23.9292 2.53724 23.84 2.35887 23.709 2.21627ZM14.999 22.9227L12.209 15.6427L16.999 10.6611L15.589 9.19467L10.759 14.2179L3.79902 11.2747L21.329 4.69147L14.999 22.9227Z" fill="#8EC2F2"/>
</g>
<defs>
<clipPath id="clip0_1255_1001">
<rect width="24" height="26" fill="white" transform="translate(0 0.874695)"/>
</clipPath>
</defs>
</svg>
