<svg width="49" height="48" viewBox="0 0 49 48" fill="none" xmlns="http://www.w3.org/2000/svg">
<rect width="49" height="48" fill="#EDEDED"/>
<rect width="1440" height="4674" transform="translate(-286 -1191)" fill="white"/>
<rect width="1440" height="526" transform="translate(-286 -267)" fill="#FAFAFA"/>
<rect width="230" height="209" transform="translate(-90.5 -30)" fill="white"/>
<g clip-path="url(#clip0)">
<g clip-path="url(#clip1)">
<path d="M24.8406 22.802C29.1448 22.802 32.4925 19.3066 32.4925 15.0169C32.4925 10.7271 28.9854 7.39062 24.6812 7.39062C20.377 7.39062 17.0293 10.886 17.0293 15.0169C17.0293 19.3066 20.5364 22.802 24.8406 22.802ZM24.6812 10.5682C24.8406 10.5682 24.8406 10.5682 24.6812 10.5682C27.2318 10.5682 29.3042 12.6337 29.3042 15.1757C29.3042 17.7178 27.2318 19.6244 24.6812 19.6244C22.1306 19.6244 20.2176 17.5589 20.2176 15.1757C20.2176 12.6337 22.29 10.5682 24.6812 10.5682V10.5682Z" fill="#0D5C63"/>
<path d="M48.434 21.8472C45.4051 19.1463 41.4198 17.7164 37.275 17.8752H35.9997C35.6808 19.1463 35.2026 20.2584 34.5649 21.2117C35.5214 21.0528 36.3185 21.0528 37.275 21.0528C40.3039 20.894 43.3327 21.8472 45.724 23.5949V35.0343H48.9123V22.3239L48.434 21.8472Z" fill="#0D5C63"/>
<path d="M33.6083 7.70923C34.4053 5.80268 36.6371 4.8494 38.7095 5.64379C40.6225 6.43819 41.579 8.66251 40.7819 10.728C40.1443 12.1579 38.7095 13.1111 37.2748 13.1111C36.956 13.1111 36.4777 13.1112 36.1589 12.9523C36.3183 13.7467 36.3183 14.5411 36.3183 15.1766V16.1299C36.6371 16.1299 36.956 16.2887 37.2748 16.2887C41.2602 16.2887 44.4485 13.1112 44.4485 9.29803C44.4485 5.32604 41.2602 2.14844 37.4342 2.14844C34.8836 2.14844 32.6518 3.41948 31.3765 5.64379C32.1735 6.12043 32.9706 6.75595 33.6083 7.70923V7.70923Z" fill="#0D5C63"/>
<path d="M15.4352 21.3719C14.7975 20.4186 14.3193 19.3065 14.0005 18.0354H12.7252C8.58037 17.8765 4.59501 19.3065 1.56613 21.8485L1.08789 22.3252V35.0356H4.27618V23.5962C6.82681 21.8485 9.69628 20.8953 12.7252 21.0541C13.6816 21.0541 14.6381 21.213 15.4352 21.3719Z" fill="#0D5C63"/>
<path d="M12.7251 16.129C13.044 16.129 13.3628 16.129 13.6816 15.9702V15.0169C13.6816 14.2225 13.6816 13.4281 13.841 12.7926C13.5222 12.9514 13.044 12.9514 12.7251 12.9514C10.6527 12.9514 8.89917 11.2038 8.89917 9.13831C8.89917 7.07287 10.6527 5.3252 12.7251 5.3252C14.3193 5.3252 15.754 6.27848 16.3917 7.70839C17.0293 6.91399 17.9858 6.1196 18.7829 5.48408C16.7105 2.1476 12.4063 1.03544 9.05859 3.10088C5.71088 5.16632 4.59498 9.45607 6.66737 12.7926C7.94269 14.858 10.1745 16.129 12.7251 16.129V16.129Z" fill="#0D5C63"/>
<path d="M37.9128 31.3832L37.594 30.9066C34.4057 27.4112 29.9421 25.3458 25.1596 25.5046C20.3772 25.3458 15.7542 27.4112 12.5659 30.9066L12.2471 31.3832V43.4581C12.2471 44.888 13.363 46.159 14.9571 46.159H35.3622C36.7969 46.159 38.0722 44.888 38.0722 43.4581V31.3832H37.9128ZM34.7245 42.9814H15.4354V32.4954C17.986 29.9533 21.4931 28.6822 25.1596 28.6822C28.6668 28.5234 32.1739 29.9533 34.7245 32.4954V42.9814Z" fill="#0D5C63"/>
</g>
</g>
<defs>
<clipPath id="clip0">
<rect width="48" height="48" fill="white" transform="translate(0.5)"/>
</clipPath>
<clipPath id="clip1">
<rect width="48" height="44.2105" fill="white" transform="translate(1 2)"/>
</clipPath>
</defs>
</svg>
