<svg width="49" height="48" viewBox="0 0 49 48" fill="none" xmlns="http://www.w3.org/2000/svg">
<g clip-path="url(#clip0)">
<path d="M44.1501 22.281C43.5746 22.2852 43.0045 22.395 42.4673 22.6051L36.727 17.8204C36.8682 17.2988 36.9687 16.7577 36.9687 16.1874C36.9687 12.8091 34.3021 10.0938 30.9843 10.0938C27.6665 10.0938 24.9998 12.8091 24.9998 16.1874C24.9998 17.1526 25.2392 18.052 25.627 18.8612L18.6635 27.2412C18.3848 27.188 18.102 27.1595 17.8185 27.1559C17.39 27.1559 16.9855 27.229 16.5929 27.3362L10.4576 21.0891C10.5653 20.6918 10.6371 20.2798 10.6371 19.8435C10.6371 17.1428 8.50189 14.9686 5.84958 14.9686C3.19727 14.9686 1.06201 17.1428 1.06201 19.8435C1.06201 22.5442 3.19727 24.7184 5.84958 24.7184C6.27806 24.7184 6.68261 24.6453 7.07519 24.538L13.2105 30.7852C13.0954 31.1902 13.035 31.6092 13.0309 32.0307C13.0309 34.7314 15.1662 36.9056 17.8185 36.9056C20.4708 36.9056 22.6061 34.7314 22.6061 32.0307C22.6061 31.4531 22.4912 30.9095 22.3116 30.3952L29.2847 22.0055C29.8281 22.1664 30.3906 22.281 30.9843 22.281C31.929 22.2756 32.8588 22.0408 33.6964 21.596L39.4391 26.3807C39.3941 26.6367 39.3685 26.8959 39.3625 27.1559C39.3625 29.8565 41.4978 32.0307 44.1501 32.0307C46.8024 32.0307 48.9377 29.8565 48.9377 27.1559C48.9377 24.4552 46.8024 22.281 44.1501 22.281Z" fill="#0D5C63"/>
</g>
<defs>
<clipPath id="clip0">
<rect width="48" height="48" fill="white" transform="translate(0.5)"/>
</clipPath>
</defs>
</svg>
