<svg width="49" height="48" viewBox="0 0 49 48" fill="none" xmlns="http://www.w3.org/2000/svg">
<g clip-path="url(#clip0)">
<path d="M16.0642 33.9934C15.2532 33.1787 15.676 33.4084 13.7197 32.8825C12.8321 32.6434 12.0518 32.184 11.3462 31.6337L7.1117 42.0625C6.70196 43.0722 7.4673 44.169 8.55183 44.1278L13.4696 43.9393L16.852 47.5281C17.5986 48.3193 18.909 48.0728 19.3188 47.0631L24.1768 35.0987C23.165 35.665 22.0422 35.9968 20.8812 35.9968C19.0612 35.9968 17.3513 35.2853 16.0642 33.9934V33.9934ZM42.7277 42.0625L38.4932 31.6337C37.7876 32.185 37.0073 32.6434 36.1197 32.8825C34.1532 33.4112 34.5844 33.1806 33.7752 33.9934C32.4881 35.2853 30.7773 35.9968 28.9573 35.9968C27.7962 35.9968 26.6734 35.664 25.6617 35.0987L30.5197 47.0631C30.9294 48.0728 32.2408 48.3193 32.9865 47.5281L36.3698 43.9393L41.2876 44.1278C42.3721 44.169 43.1374 43.0712 42.7277 42.0625V42.0625ZM31.5464 31.8718C32.9725 30.414 33.1358 30.5397 35.1668 29.9837C36.4632 29.6284 37.4768 28.5925 37.824 27.2668C38.5221 24.6043 38.341 24.9259 40.246 22.9778C41.1952 22.0075 41.5657 20.5928 41.2185 19.2672C40.5213 16.6065 40.5204 16.9778 41.2185 14.3143C41.5657 12.9887 41.1952 11.574 40.246 10.6037C38.341 8.6556 38.5221 8.97622 37.824 6.31466C37.4768 4.98904 36.4632 3.9531 35.1668 3.59779C32.5646 2.88435 32.8782 3.07091 30.9714 1.12185C30.0222 0.151537 28.6381 -0.22815 27.3417 0.127162C24.7405 0.839662 25.1036 0.8406 22.4977 0.127162C21.2013 -0.22815 19.8172 0.1506 18.868 1.12185C16.963 3.06997 17.2766 2.88435 14.6736 3.59779C13.3772 3.9531 12.3636 4.98904 12.0164 6.31466C11.3192 8.97622 11.4993 8.6556 9.59436 10.6037C8.64516 11.574 8.2737 12.9887 8.62183 14.3143C9.31903 16.9731 9.31996 16.6018 8.62183 19.2662C8.27463 20.5918 8.64516 22.0065 9.59436 22.9778C11.4993 24.9259 11.3182 24.6043 12.0164 27.2668C12.3636 28.5925 13.3772 29.6284 14.6736 29.9837C16.7624 30.5556 16.9182 30.4656 18.293 31.8718C19.5278 33.1347 21.4514 33.3606 22.9354 32.4175C23.5289 32.0391 24.2173 31.8381 24.9202 31.8381C25.6231 31.8381 26.3115 32.0391 26.9049 32.4175C28.388 33.3606 30.3116 33.1347 31.5464 31.8718ZM16.1146 16.4931C16.1146 11.5215 20.057 7.49122 24.9197 7.49122C29.7824 7.49122 33.7248 11.5215 33.7248 16.4931C33.7248 21.4647 29.7824 25.495 24.9197 25.495C20.057 25.495 16.1146 21.4647 16.1146 16.4931V16.4931Z" fill="#0D5C63"/>
</g>
<defs>
<clipPath id="clip0">
<rect width="35.84" height="48" fill="white" transform="translate(7)"/>
</clipPath>
</defs>
</svg>
