<svg width="49" height="48" viewBox="0 0 49 48" fill="none" xmlns="http://www.w3.org/2000/svg">
<g clip-path="url(#clip0)">
<g clip-path="url(#clip1)">
<path d="M43.5886 12.5236H38.519V7.45397C38.519 6.5576 38.1629 5.69795 37.5291 5.06412C36.8953 4.4303 36.0356 4.07422 35.1393 4.07422H14.8608C13.9644 4.07422 13.1048 4.4303 12.4709 5.06412C11.8371 5.69795 11.481 6.5576 11.481 7.45397V12.5236H6.41142C5.06687 12.5236 3.77739 13.0577 2.82665 14.0084C1.87592 14.9592 1.3418 16.2487 1.3418 17.5932V41.2514C1.3418 42.1478 1.69788 43.0074 2.3317 43.6413C2.96553 44.2751 3.82518 44.6312 4.72154 44.6312H45.2785C46.1749 44.6312 47.0345 44.2751 47.6683 43.6413C48.3022 43.0074 48.6583 42.1478 48.6583 41.2514V17.5932C48.6583 16.2487 48.1241 14.9592 47.1734 14.0084C46.2227 13.0577 44.9332 12.5236 43.5886 12.5236ZM14.8608 7.45397H35.1393V12.5236H14.8608V7.45397ZM45.2785 41.2514H4.72154V26.0426H18.2405V34.4919H31.7595V26.0426H45.2785V41.2514ZM21.6203 26.0426H28.3798V31.1122H21.6203V26.0426ZM4.72154 22.6628V17.5932C4.72154 17.145 4.89958 16.7152 5.2165 16.3983C5.53341 16.0814 5.96323 15.9033 6.41142 15.9033H43.5886C44.0368 15.9033 44.4666 16.0814 44.7836 16.3983C45.1005 16.7152 45.2785 17.145 45.2785 17.5932V22.6628H4.72154Z" fill="#0D5C63"/>
</g>
</g>
<defs>
<clipPath id="clip0">
<rect width="48" height="48" fill="white" transform="translate(0.5)"/>
</clipPath>
<clipPath id="clip1">
<rect width="48" height="40.7089" fill="white" transform="translate(1 4)"/>
</clipPath>
</defs>
</svg>
